<?xml version="1.0" encoding="UTF-8" standalone="no"?>
<!-- Created with Inkscape (http://www.inkscape.org/) -->

<svg
   xmlns:dc="http://purl.org/dc/elements/1.1/"
   xmlns:cc="http://creativecommons.org/ns#"
   xmlns:rdf="http://www.w3.org/1999/02/22-rdf-syntax-ns#"
   xmlns:svg="http://www.w3.org/2000/svg"
   xmlns="http://www.w3.org/2000/svg"
   xmlns:sodipodi="http://sodipodi.sourceforge.net/DTD/sodipodi-0.dtd"
   xmlns:inkscape="http://www.inkscape.org/namespaces/inkscape"
   width="91.538811mm"
   height="91.531792mm"
   viewBox="0 0 91.538811 91.531792"
   version="1.1"
   id="svg8"
   inkscape:version="0.92.4 (5da689c313, 2019-01-14)"
   sodipodi:docname="exit_cross.svg">
  <defs
     id="defs2" />
  <sodipodi:namedview
     id="base"
     pagecolor="#ffffff"
     bordercolor="#666666"
     borderopacity="1.0"
     inkscape:pageopacity="0.0"
     inkscape:pageshadow="2"
     inkscape:zoom="0.35"
     inkscape:cx="507.28569"
     inkscape:cy="247.25918"
     inkscape:document-units="mm"
     inkscape:current-layer="layer1"
     showgrid="false"
     fit-margin-top="0"
     fit-margin-left="0"
     fit-margin-right="0"
     fit-margin-bottom="0"
     inkscape:window-width="2160"
     inkscape:window-height="1346"
     inkscape:window-x="-11"
     inkscape:window-y="-11"
     inkscape:window-maximized="1" />
  <metadata
     id="metadata5">
    <rdf:RDF>
      <cc:Work
         rdf:about="">
        <dc:format>image/svg+xml</dc:format>
        <dc:type
           rdf:resource="http://purl.org/dc/dcmitype/StillImage" />
        <dc:title></dc:title>
      </cc:Work>
    </rdf:RDF>
  </metadata>
  <g
     inkscape:label="Layer 1"
     inkscape:groupmode="layer"
     id="layer1"
     transform="translate(188.64791,-122.7222)">
    <path
       style="fill:#343337;stroke-width:0.26458332"
       d="m -186.77952,213.77755 c -0.96055,-0.51515 -1.86839,-1.909 -1.86839,-2.86862 0,-0.32022 0.12505,-0.91739 0.2779,-1.32705 0.15501,-0.41546 9.10555,-9.5794 20.24062,-20.72321 10.9795,-10.98812 19.96273,-20.15414 19.96273,-20.36893 0,-0.2148 -9.03711,-9.44109 -20.08246,-20.50287 -21.20266,-21.23419 -20.69633,-20.66888 -20.26631,-22.62671 0.22402,-1.01998 1.49252,-2.28848 2.51249,-2.5125 1.95783,-0.43001 1.39252,-0.93635 22.62672,20.26632 11.06177,11.04535 20.28732,20.08245 20.50122,20.08245 0.2139,0 9.43945,-9.0371 20.50122,-20.08245 21.23421,-21.20267 20.66889,-20.69633 22.626717,-20.26632 1.01998,0.22402 2.28847,1.49252 2.5125,2.5125 0.43001,1.95783 0.93635,1.39252 -20.266317,22.62671 -11.04535,11.06178 -20.08245,20.28733 -20.08245,20.50123 0,0.21389 9.0371,9.43944 20.08245,20.50122 21.202667,21.2342 20.696327,20.66889 20.266317,22.62672 -0.22403,1.01997 -1.49252,2.28847 -2.5125,2.51249 -1.957827,0.43001 -1.392507,0.93635 -22.626717,-20.26632 -11.06177,-11.04535 -20.28806,-20.08245 -20.50286,-20.08245 -0.2148,0 -9.38081,8.98323 -20.36893,19.96273 -11.14381,11.13507 -20.30775,20.08561 -20.72321,20.24062 -1.0665,0.39792 -1.78322,0.3455 -2.81074,-0.20556 z"
       id="path21"
       inkscape:connector-curvature="0" />
  </g>
</svg>
