<?xml version="1.0" encoding="UTF-8" standalone="no"?>
<svg
   xmlns:dc="http://purl.org/dc/elements/1.1/"
   xmlns:cc="http://creativecommons.org/ns#"
   xmlns:rdf="http://www.w3.org/1999/02/22-rdf-syntax-ns#"
   xmlns:svg="http://www.w3.org/2000/svg"
   xmlns="http://www.w3.org/2000/svg"
   xmlns:sodipodi="http://sodipodi.sourceforge.net/DTD/sodipodi-0.dtd"
   xmlns:inkscape="http://www.inkscape.org/namespaces/inkscape"
   id="svg8"
   version="1.1"
   viewBox="0 0 368.7417 310.85294"
   height="310.85294mm"
   width="368.7417mm"
   sodipodi:docname="white_logo.svg"
   inkscape:version="0.92.4 (5da689c313, 2019-01-14)">
  <sodipodi:namedview
     pagecolor="#ffffff"
     bordercolor="#666666"
     borderopacity="1"
     objecttolerance="10"
     gridtolerance="10"
     guidetolerance="10"
     inkscape:pageopacity="0"
     inkscape:pageshadow="2"
     inkscape:window-width="2160"
     inkscape:window-height="1346"
     id="namedview7"
     showgrid="false"
     inkscape:zoom="0.8034882"
     inkscape:cx="692.2018"
     inkscape:cy="709.82793"
     inkscape:window-x="-11"
     inkscape:window-y="-11"
     inkscape:window-maximized="1"
     inkscape:current-layer="svg8" />
  <defs
     id="defs2">
    <filter
       style="color-interpolation-filters:sRGB;"
       inkscape:label="Lightness-Contrast"
       id="filter11"
       inkscape:menu-tooltip="Fades hue progressively to white"
       inkscape:menu="Color">
      <feColorMatrix
         values="0.21 0.72 0.072 -0.21 0 0.21 0.72 0.072 -0.21 0 0.21 0.72 0.072 -0.21 0 0 0 0 1 0 "
         id="feColorMatrix9"
         result="fbSourceGraphic" />
      <feColorMatrix
         result="fbSourceGraphicAlpha"
         in="fbSourceGraphic"
         values="0 0 0 -1 0 0 0 0 -1 0 0 0 0 -1 0 0 0 0 1 0"
         id="feColorMatrix13" />
      <feColorMatrix
         id="feColorMatrix15"
         values="1 0 0 0 0 1 0 0 0 0 1 0 0 0 0 0 0 0 0 1 "
         type="matrix"
         result="r"
         in="fbSourceGraphic" />
      <feColorMatrix
         id="feColorMatrix17"
         values="0 1 0 0 0 0 1 0 0 0 0 1 0 0 0 0 0 0 0 1 "
         type="matrix"
         result="g"
         in="fbSourceGraphic" />
      <feColorMatrix
         id="feColorMatrix19"
         values="0 0 1 0 0 0 0 1 0 0 0 0 1 0 0 0 0 0 0 1 "
         type="matrix"
         result="b"
         in="fbSourceGraphic" />
      <feBlend
         in2="g"
         id="feBlend21"
         result="minrg"
         in="r"
         mode="darken" />
      <feBlend
         in2="b"
         id="feBlend23"
         result="p"
         in="minrg"
         mode="darken" />
      <feBlend
         in2="g"
         id="feBlend25"
         result="maxrg"
         in="r"
         mode="lighten" />
      <feBlend
         in2="b"
         id="feBlend27"
         result="q"
         in="maxrg"
         mode="lighten" />
      <feComponentTransfer
         id="feComponentTransfer29"
         result="q2"
         in="q">
        <feFuncR
           id="feFuncR31"
           slope="0"
           type="linear" />
      </feComponentTransfer>
      <feBlend
         in2="q2"
         id="feBlend33"
         result="pq"
         in="p"
         mode="lighten" />
      <feColorMatrix
         id="feColorMatrix35"
         values="-1 1 0 0 0 -1 1 0 0 0 -1 1 0 0 0 0 0 0 0 1 "
         type="matrix"
         result="qminp"
         in="pq" />
      <feComposite
         in2="qminp"
         id="feComposite37"
         k3="1"
         operator="arithmetic"
         result="qminpc"
         in="qminp" />
      <feBlend
         in2="fbSourceGraphic"
         id="feBlend39"
         result="result2"
         mode="screen" />
      <feComposite
         in2="fbSourceGraphic"
         id="feComposite41"
         operator="in"
         in="result2"
         result="fbSourceGraphic" />
      <feColorMatrix
         result="fbSourceGraphicAlpha"
         in="fbSourceGraphic"
         values="0 0 0 -1 0 0 0 0 -1 0 0 0 0 -1 0 0 0 0 1 0"
         id="feColorMatrix43" />
      <feColorMatrix
         id="feColorMatrix45"
         values="1 0 0 1 -0 0 1 0 1 -0 0 0 1 1 -0 0 0 0 1 0"
         in="fbSourceGraphic"
         result="fbSourceGraphic" />
      <feColorMatrix
         result="fbSourceGraphicAlpha"
         in="fbSourceGraphic"
         values="0 0 0 -1 0 0 0 0 -1 0 0 0 0 -1 0 0 0 0 1 0"
         id="feColorMatrix47" />
      <feColorMatrix
         id="feColorMatrix49"
         values="1 0 0 1 -0 0 1 0 1 -0 0 0 1 1 -0 0 0 0 1 0"
         in="fbSourceGraphic" />
    </filter>
  </defs>
  <metadata
     id="metadata5">
    <rdf:RDF>
      <cc:Work
         rdf:about="">
        <dc:format>image/svg+xml</dc:format>
        <dc:type
           rdf:resource="http://purl.org/dc/dcmitype/StillImage" />
        <dc:title />
      </cc:Work>
    </rdf:RDF>
  </metadata>
  <g
     transform="translate(408.26703,54.613783)"
     id="layer1"
     style="filter:url(#filter11)">
    <path
       id="path21"
       d="m -103.49749,255.74741 c -1.17237,-0.91366 -2.31915,-1.36033 -3.4926,-1.36033 -1.60843,0 -2.27738,-0.60929 -3.70023,-3.37029 -2.12508,-4.12369 -2.14043,-4.23077 -2.13315,-14.88596 0.004,-6.47703 0.13957,-10.87107 0.43532,-14.15521 0.23588,-2.61938 0.61103,-9.28688 0.83368,-14.81667 0.5071,-12.59539 0.96345,-45.36591 0.66873,-48.02187 -0.12946,-1.16674 -0.1048,-3.78318 0.0598,-6.35 0.18788,-2.92959 0.20405,-8.41264 0.0491,-16.66875 -0.12697,-6.76672 -0.19341,-20.20636 -0.14767,-29.86587 l 0.0832,-17.562746 -0.6768,0.12939 c -1.41774,0.27101 -1.50503,-1.29795 -0.14671,-2.63643 l 0.74289,-0.73205 -0.36419,-2.38125 c -0.20032,-1.30969 -0.36844,-3.18073 -0.3736,-4.15788 -0.008,-1.47227 -0.096,-1.82297 -0.51485,-2.04714 -0.31805,-0.17022 -3.53086,-0.25524 -8.6651,-0.22931 -11.7243,0.0592 -14.28711,-0.32839 -23.1086,-3.49499 -16.19959,-5.81506 -20.9026,-9.36414 -30.69167,-23.161222 -0.80037,-1.12806 -2.1126,-2.9548 -2.91607,-4.05941 -1.28106,-1.7612 -3.92018,-5.68888 -5.70512,-8.49067 -0.32448,-0.50933 -1.42474,-2.35479 -2.44501,-4.10104 -2.84153,-4.86339 -4.56351,-7.49366 -5.83735,-8.91633 -1.11651,-1.24697 -2.77086,-2.32847 -3.56181,-2.32847 -0.20795,0 -0.65918,-0.23044 -1.00273,-0.51209 -1.06102,-0.86989 -0.25163,-1.32913 2.84055,-1.6117 1.44113,-0.1317 3.57275,-0.36346 4.73691,-0.51502 10.99822,-1.43187 20.92525,-1.53072 29.10417,-0.28983 5.85398,0.88815 13.61523,3.65437 19.09789,6.80675 5.67865,3.26506 9.94868,6.66543 14.43506,11.49514 5.58138,6.00848 12.04746,15.71544 13.69803,20.56366 0.5406,1.58789 0.57862,1.91356 0.2672,2.28879 -0.23778,0.28651 -0.57822,0.38349 -0.98649,0.28102 -0.85553,-0.21472 -3.87112,-2.17169 -7.35336,-4.77194 -6.57161,-4.90716 -13.32587,-8.94648 -18.41338,-11.01195 -4.40182,-1.78709 -11.08766,-3.23209 -11.08766,-2.39635 0,0.11997 1.87524,0.97205 4.16719,1.89349 2.29195,0.92145 4.88156,2.00022 5.75469,2.39727 0.87312,0.39704 2.3614,1.02971 3.30729,1.40591 4.25569,1.69261 9.91304,4.88973 14.01297,7.91908 4.41629,3.26311 12.66227,11.900282 14.70575,15.403402 0.24728,0.42388 0.38301,0.43788 1.3027,0.13435 2.14186,-0.70687 7.312791,0.29369 9.742751,1.8852 2.15877,1.4139 4.17256,6.10934 4.64646,10.83394 0.22384,2.23168 0.006,7.28218 -0.36571,8.46571 -0.75716,2.41299 -1.55093,21.020956 -0.94501,22.153146 0.44381,0.82925 0.73403,0.72077 1.10297,-0.41225 1.39776,-4.2927 8.03378,-17.289896 11.5163,-22.555726 2.49055,-3.76589 6.01179,-8.07154 8.12404,-9.93383 4.25,-3.74706 10.99979,-6.71427 15.31006,-6.73032 1.91598,-0.007 4.91405,0.65488 7.51115,1.65856 1.30233,0.50331 3.1777,1.18019 4.16748,1.50418 2.05216,0.67174 3.62204,1.76855 4.86627,3.39986 1.34236,1.75996 1.51381,2.79153 1.15125,6.92655 -0.40145,4.57826 -0.89212,6.96313 -2.04144,9.92188 -0.50874,1.30969 -1.49749,3.988586 -2.19723,5.953116 -1.67318,4.69741 -2.14718,5.75123 -3.60715,8.0193 -1.81327,2.81693 -4.43486,5.99249 -10.30782,12.48591 -6.94949,7.68371 -9.37837,10.18619 -13.3437,13.74812 -7.40186,6.6488 -10.15538,8.27469 -14.81668,8.7489 -1.9722,0.20063 -2.72901,0.59412 -3.31237,1.7222 -0.81446,1.57497 -3.2921,12.91528 -3.58185,16.39432 -0.43077,5.17214 -1.04399,9.96925 -1.60657,12.56771 -0.429,1.9814 -0.55669,4.11394 -0.76047,12.7 -0.34639,14.5951 -0.36002,14.81634 -1.04767,17.02353 l -0.60513,1.94228 0.4961,2.15876 c 0.73236,3.18688 0.6882,10.07827 -0.0833,13.00668 -0.91803,3.48446 -0.92689,3.76806 -0.20648,6.61591 0.55118,2.17876 0.71207,3.66969 0.91355,8.46534 0.13451,3.20146 0.32679,7.31454 0.42728,9.14016 0.22021,4.00077 -0.0709,4.90043 -1.97673,6.10907 -1.06431,0.67495 -1.43232,0.75806 -3.356821,0.75806 -1.70395,0 -2.29505,-0.10409 -2.79247,-0.49175 z m -1.54278,-95.71809 c 0.30982,-1.33546 0.31953,-5.39016 0.013,-5.39016 -0.33949,0 -0.82092,3.03076 -0.82092,5.16782 0,1.9855 0.37499,2.08869 0.80801,0.22234 z m 12.200891,-10.58812 c 0.43513,-0.98365 0.49813,-1.44545 0.31543,-2.31157 -0.50535,-2.3955 -1.68267,-1.00121 -1.68267,1.99276 0,1.9726 0.57626,2.10697 1.36724,0.31881 z m -12.096831,-6.20172 c -0.0852,-0.13784 -0.26766,-0.18092 -0.4055,-0.0957 -0.13785,0.0852 -0.18093,0.26766 -0.0957,0.4055 0.0852,0.13784 0.26765,0.18092 0.4055,0.0957 0.13785,-0.0852 0.18092,-0.26767 0.0957,-0.40551 z m 14.946891,-9.17167 c 0.78557,-0.79534 1.2033,-1.64835 2.1054,-4.29948 1.67277,-4.91594 6.35862,-16.82508 8.22428,-20.90208 3.28633,-7.1816 6.54822,-13.000186 11.1452,-19.880936 1.42338,-2.1305 2.5208,-3.94082 2.43867,-4.02293 -0.16711,-0.16713 -2.78458,1.54313 -4.53903,2.96585 -1.26032,1.02201 -4.62207,5.37693 -7.17625,9.29635 -1.95109,2.993986 -4.49606,8.138456 -5.30103,10.715626 -1.23111,3.94141 -1.69675,5.12727 -3.16873,8.06979 -0.83714,1.67349 -1.84227,3.85174 -2.23359,4.84057 -0.80674,2.03855 -3.86014,12.60838 -3.86014,13.36255 0,1.20189 1.10133,1.13423 2.36522,-0.14531 z m -15.192561,-4.49792 c -0.19455,-1.57177 -0.29242,-1.85125 -0.55594,-1.58773 -0.2503,0.2503 0.19076,3.10909 0.47966,3.10909 0.16756,0 0.19553,-0.55797 0.0763,-1.52136 z m 26.211661,-5.42396 c 11.36362,-11.56893 21.55969,-24.294416 24.81742,-30.974146 0.99817,-2.04664 1.22743,-2.82111 1.45489,-4.91462 0.31102,-2.86252 0.0706,-3.658 -1.37102,-4.53704 -1.33371,-0.8132 -2.71388,-0.67285 -4.65873,0.47373 -2.05097,1.20914 -6.24393,5.353 -8.28545,8.18841 -2.92206,4.05842 -10.28645,18.518436 -13.38091,26.273566 -2.83297,7.09986 -3.41582,9.26042 -2.49817,9.26042 0.1202,0 1.8851,-1.69664 3.92197,-3.77032 z m 16.13483,-4.7625 c 3.09525,-3.6029 5.52362,-6.91693 7.34801,-10.02794 1.55178,-2.64612 1.651,-2.87049 1.26931,-2.87049 -0.23977,0 -1.75676,1.90871 -5.36223,6.74687 -1.1929,1.60073 -2.8634,3.65845 -3.71227,4.57271 -1.42425,1.53402 -2.60363,3.35301 -2.60363,4.01571 0,0.77394 0.95695,0.0121 3.06081,-2.43686 z m -306.379151,58.94186 c -0.56754,-0.20225 -1.12723,-0.52201 -1.24378,-0.71058 -0.53427,-0.86447 -0.52334,-2.39139 0.033,-4.61213 0.56357,-2.24959 0.56982,-2.46132 0.26756,-9.0766 -0.31355,-6.86258 -0.44233,-7.94444 -1.1999,-10.08057 -0.23223,-0.65484 -0.54655,-1.7264 -0.69848,-2.38125 -0.377,-1.62498 -0.85215,-13.40459 -0.89115,-22.09271 -0.0177,-3.92906 -0.16982,-8.27484 -0.3382,-9.65729 -0.16837,-1.38244 -0.24451,-3.88276 -0.16921,-5.55625 0.29889,-6.6421 0.57563,-26.667836 0.38544,-27.891286 -0.12123,-0.77979 -0.40176,-1.45185 -0.70051,-1.6782 -0.83614,-0.6335 -3.78365,-0.24407 -7.24518,0.95725 -3.64405,1.26465 -6.77579,1.94259 -7.98171,1.72782 -0.485,-0.0864 -1.61443,-0.3952 -2.50982,-0.68627 -1.56661,-0.50927 -1.70129,-0.51272 -3.57188,-0.0914 -1.06913,0.2408 -2.87276,0.72921 -4.00806,1.08537 -2.41952,0.75904 -3.34729,0.80001 -5.04183,0.22262 -1.73686,-0.59181 -4.13878,-2.81345 -4.13878,-3.82814 0,-1.12942 1.05214,-1.56806 3.75717,-1.56639 1.86951,0.001 2.35328,0.0982 3.25429,0.6532 0.58208,0.35852 1.40956,0.65556 1.83885,0.6601 0.74166,0.008 4.68858,-1.42349 10.19969,-3.69888 1.38245,-0.57078 3.99642,-1.57891 5.80882,-2.24029 5.65692,-2.06431 9.14774,-3.58173 9.48608,-4.1235 0.5998,-0.96043 1.08688,-4.12268 1.36801,-8.88133 0.15362,-2.600372 0.41925,-6.692482 0.59028,-9.093572 0.17103,-2.4011 0.34435,-6.33016 0.38515,-8.73125 0.21357,-12.57002 1.42676,-37.0730497 2.3533,-47.53013974 0.56939,-6.42624996 0.62543,-7.96595996 0.40925,-11.24479026 -0.13777,-2.08947 -0.19856,-4.33481 -0.13511,-4.98965 0.0634,-0.65485 0.23597,-4.82204 0.38339,-9.26042 0.29545,-8.895679 0.84715,-13.532869 1.75692,-14.767499 0.7103,-0.96393 2.58633,-1.54952 6.16441,-1.92416 6.20576,-0.649783 9.54198,-0.0475 11.38893,2.05608 0.99946,1.13832 1.276,1.76925 2.41397,5.50745 0.80417,2.6417 0.88387,3.20357 0.86315,6.08542 -0.0163,2.26454 -0.19775,3.971659 -0.63284,5.953129 -0.43717,1.99094 -0.63534,3.86518 -0.6994,6.61458 -0.0553,2.37149 -0.33895,5.40246 -0.74296,7.9375003 -0.81592,5.11973 -1.04056,7.16955 -1.8702,17.06562 -0.95549,11.3972397 -3.30782,45.7961697 -3.30782,48.3713897 0,2.25427 0.39704,3.35465 1.21042,3.35465 0.66257,0 10.3968,-4.44259 13.87083,-6.33049 1.81901,-0.98851 7.92499,-4.15221 13.56884,-7.03044 10.79962,-5.50754 14.33909,-7.63831 19.76866,-11.90075 4.00142,-3.14128 7.6093,-5.52809 10.76798,-7.12362 1.29624,-0.65476 2.8863,-1.64743 3.53347,-2.20594 0.64717,-0.5585 1.71246,-1.4248 2.3673,-1.92511 1.4929,-1.14059 5.60321,-4.81146 6.95276,-6.20942 1.12096,-1.16118 3.4163,-4.54021 5.03539,-7.41277 0.57415,-1.0186397 1.66933,-2.7506597 2.43373,-3.8489297 2.04519,-2.93848 2.6113,-4.23225 3.58349,-8.18961 1.69646,-6.90547 1.29341,-12.2685003 -1.32228,-17.5947903 -1.63069,-3.32056 -3.53113,-5.60317 -6.97328,-8.375629 -3.62392,-2.91886 -5.96262,-4.39451 -10.37127,-6.54399 -5.57987,-2.72051 -10.33216,-4.61824 -17.27324,-6.89768 -6.72547,-2.208646 -8.53791,-2.661746 -13.28613,-3.321463 -1.67349,-0.232514 -5.24537,-0.759035 -7.9375,-1.170047 -4.407,-0.672823 -5.46169,-0.740439 -10.58333,-0.678494 -3.1287,0.03784 -8.42698,0.187064 -11.77396,0.331609 l -6.08542,0.262807 -8.46667,2.045472 c -9.53451,2.303456 -13.19345,3.361646 -17.59479,5.088526 -6.87724,2.69832 -9.67145,4.36733 -14.2875,8.53407 -1.23692,1.11653 -2.99955,2.61003 -3.91695,3.31888 -1.46295,1.130399 -1.85324,1.301789 -3.175,1.394239 -1.25541,0.0878 -1.66054,0.001 -2.42667,-0.51957 -1.09073,-0.741209 -2.27965,-2.966579 -2.5205,-4.717739 -0.54997,-3.99874 4.30902,-9.74955 11.11308,-13.152812 2.78005,-1.390524 10.18416,-4.227424 14.2875,-5.474277 16.01869,-4.86749 38.84274,-6.490984 55.89867,-3.976119 4.97324,0.733294 18.2965,3.946992 24.17644,5.831588 12.9535,4.151765 22.74828,9.60383 30.38843,16.91511 1.09141,1.04443 2.69875,2.37764 3.57188,2.96269 2.26154,1.515379 3.77459,3.251699 5.51878,6.333169 5.88912,10.40427 6.60218,17.4051203 2.92319,28.6999903 -1.17097,3.5950097 -1.18816,3.6261997 -5.16939,9.3815297 -4.03944,5.83946 -5.0078,7.12221 -7.63821,10.11794 -1.746,1.98849 -15.33557,14.77812 -17.43563,16.40929 -0.81514,0.63314 -4.23983,2.8668 -7.61041,4.96369 -3.37059,2.09688 -7.24012,4.62352 -8.59896,5.61475 -1.35884,0.99124 -3.06594,2.01963 -3.79354,2.28531 -2.56961,0.9383 -5.31482,2.48556 -7.27604,4.10095 -2.94835,2.42844 -6.3691,4.361582 -8.86455,5.009552 -1.16361,0.30214 -3.11141,0.84823 -4.32845,1.21353 -1.21703,0.36529 -2.48278,0.66417 -2.81277,0.66417 -0.32999,0 -1.39078,0.29766 -2.35731,0.66146 -1.01945,0.38372 -2.31397,0.66146 -3.08301,0.66146 -1.96506,0 -6.07058,2.18777 -6.07058,3.23493 0,0.29626 -0.22697,0.57813 -0.52916,0.65715 -0.29105,0.0761 -0.52917,0.2375 -0.52917,0.35864 0,0.12115 -0.40665,0.53043 -0.90367,0.90953 -0.62548,0.47707 -1.66287,0.84156 -3.36981,1.18399 -1.94299,0.38978 -2.58754,0.63587 -3.03844,1.16007 -0.76252,0.88648 -1.09132,3.07716 -1.4152,9.42902 -0.38396,7.53011 -1.01308,14.908966 -1.47756,17.330206 -0.97353,5.07484 -1.15938,6.30387 -1.42316,9.41133 -0.15354,1.80877 -0.39596,5.78898 -0.53872,8.84492 -0.3758,8.04451 -1.01969,14.46099 -1.72714,17.21141 -0.66395,2.58127 -1.00007,5.30131 -1.45954,11.81131 -0.41212,5.83903 -0.63714,7.14523 -1.57683,9.15331 l -0.82649,1.76617 0.17716,5.29661 c 0.27419,8.19756 -0.37211,11.28191 -2.54631,12.15185 -1.255,0.50215 -1.40437,0.50378 -2.7343,0.0298 z m 0.33102,-37.23838 c 0.36038,-2.54835 0.73633,-3.10152 1.78362,-2.62435 0.38798,0.17678 0.75675,0.27008 0.81949,0.20734 0.25794,-0.25794 0.63911,-4.00973 0.87607,-8.62309 0.20462,-3.98387 0.39799,-5.48133 1.02634,-7.94809 0.51798,-2.03349 0.92827,-3.12807 1.23969,-3.3073 1.30601,-0.75163 1.96711,-2.40214 1.96711,-4.91111 0,-1.1087 -0.37995,-1.4031 -0.66238,-0.51324 -0.0929,0.29263 -0.50563,0.70621 -0.91723,0.91906 -0.69601,0.35992 -0.81719,0.34029 -1.73206,-0.28057 -0.54104,-0.36715 -1.0513,-0.59995 -1.13392,-0.51733 -0.0826,0.0826 -0.42243,1.47117 -0.75513,3.08566 -0.66164,3.21073 -0.97943,3.87519 -1.60507,3.35596 -0.3308,-0.27454 -0.37281,-2.26742 -0.29563,-14.02625 0.11674,-17.785186 -0.10797,-18.183626 -1.08968,-1.93214 -0.29008,4.80218 -0.66833,10.39812 -0.84055,12.43541 -0.48075,5.6871 -0.56847,11.07327 -0.23351,14.33697 0.16708,1.62793 0.30151,4.93643 0.29872,7.35223 -0.005,4.55276 0.0682,5.16601 0.61916,5.16601 0.20858,0 0.43895,-0.78915 0.63496,-2.17517 z m 1.09774,-50.741496 c 0,-0.29104 -0.11906,-0.52916 -0.26458,-0.52916 -0.14552,0 -0.26459,0.23812 -0.26459,0.52916 0,0.29105 0.11907,0.52917 0.26459,0.52917 0.14552,0 0.26458,-0.23812 0.26458,-0.52917 z m 0.26458,-4.23333 c 0,-0.43656 -0.11906,-0.79375 -0.26458,-0.79375 -0.14552,0 -0.26458,0.35719 -0.26458,0.79375 0,0.43656 0.11906,0.79375 0.26458,0.79375 0.14552,0 0.26458,-0.35719 0.26458,-0.79375 z m 20.66689,-22.45403 c 4.571,-2.001812 8.64676,-4.057972 8.28957,-4.181962 -0.154,-0.0535 -2.53525,0.9265 -5.29166,2.17769 -2.75642,1.25119 -5.51769,2.455322 -6.13615,2.675842 -1.08177,0.38573 -1.5116,0.88038 -0.765,0.88038 0.19771,0 1.95417,-0.69838 3.90324,-1.55195 z m 37.67374,-16.713892 c 2.62987,-1.23974 5.06127,-3.43 3.80763,-3.43 -0.33686,0 -5.5928,3.18556 -6.58576,3.99153 l -0.66146,0.53691 0.92604,-0.17505 c 0.50933,-0.0963 1.64042,-0.5118 2.51355,-0.92339 z m 16.40812,-10.98416 c 0.85818,-0.51677 2.97191,-2.09435 4.69718,-3.50573 4.16384,-3.40629 5.48656,-4.37336 7.96065,-5.82019 2.0729,-1.21221 2.69677,-1.8295 2.86158,-2.83137 0.11377,-0.6916 -0.68442,-0.59813 -2.75822,0.323 -1.19625,0.53135 -2.01307,1.21079 -3.81325,3.17192 -1.71233,1.86541 -3.04429,2.9932 -5.27389,4.46548 -4.16759,2.752 -6.68961,5.13647 -5.43276,5.13647 0.10911,0 0.90053,-0.42281 1.75871,-0.93958 z m 20.16522,-16.869 c 1.3953,-1.47531 2.28924,-2.92243 2.11962,-3.43127 -0.14705,-0.44114 -2.80589,2.14031 -3.39613,3.29728 -1.01757,1.9946 -0.53143,2.04563 1.27651,0.13399 z m 82.62145,133.386918 c -8.04092,-1.66247 -8.11729,-1.7032 -12.56771,-6.70067 -3.6496,-4.09823 -4.63829,-5.68773 -5.76863,-9.27424 -0.96919,-3.07516 -1.3383,-6.88083 -1.16582,-12.01989 0.16975,-5.05727 0.46993,-6.87461 2.28531,-13.83547 2.19506,-8.41675 3.70752,-12.583746 4.7747,-13.154886 0.73845,-0.3952 1.641,0.15471 2.10924,1.28513 0.30203,0.72917 0.20853,1.14618 -1.04855,4.676666 -1.65086,4.63644 -1.99308,5.86136 -2.50981,8.98356 -0.6489,3.92077 -0.46894,4.26627 0.86137,1.65365 0.4631,-0.90951 1.26679,-2.31649 1.78598,-3.12662 0.8016,-1.25082 0.94638,-1.70973 0.95995,-3.04271 0.0239,-2.34646 0.62908,-4.32199 2.46325,-8.040606 0.9103,-1.84555 1.94102,-4.10412 2.2905,-5.01905 0.41474,-1.08575 1.1705,-2.2722 2.17606,-3.41611 1.97069,-2.24183 3.99173,-5.46421 3.77739,-6.02276 -0.1339,-0.34894 -0.42715,-0.39096 -1.69853,-0.2434 -1.19189,0.13834 -1.60902,0.0912 -1.85907,-0.21009 -1.12658,-1.35744 3.61957,-7.4319 7.64074,-9.77917 3.33356,-1.9459 8.15948,-3.02932 11.56405,-2.59613 2.32115,0.29534 6.44236,1.99696 8.64745,3.57048 1.95653,1.39615 3.80676,3.78848 4.77731,6.17703 0.59338,1.4603 1.57355,5.5422 1.54049,6.41528 -0.0545,1.43947 -1.38318,5.05416 -2.97852,8.10319 -3.52452,6.736066 -7.06782,11.892096 -10.2502,14.915556 -3.07844,2.92472 -7.11029,6.40813 -7.88975,6.81653 -1.04496,0.54751 -5.51246,1.16746 -8.462,1.17427 -2.00928,0.005 -3.04166,-0.12834 -4.29113,-0.55276 -2.49868,-0.84874 -2.9182,-0.77694 -3.52907,0.60404 -1.02947,2.32729 -1.42894,5.06067 -1.43473,9.8173 -0.004,3.34007 0.11715,5.07684 0.47091,6.74687 1.17368,5.54067 2.80698,6.57138 8.98254,5.6685 1.63707,-0.23934 3.98852,-0.72156 5.22544,-1.07161 4.37421,-1.23788 16.96662,-7.97569 22.91638,-12.26183 3.39755,-2.44757 6.82373,-5.29504 13.84912,-11.5099 9.14812,-8.0927 14.15883,-12.93742 15.63735,-15.11933 0.9316,-1.37482 1.58178,-2.03411 2.41014,-2.443946 0.98875,-0.48919 1.1834,-0.5122 1.51641,-0.17921 0.62703,0.627046 -0.0536,2.289926 -1.65272,4.037516 -0.76835,0.83968 -2.60538,3.03343 -4.08231,4.87501 -1.47693,1.84157 -3.34219,3.92516 -4.14502,4.6302 -0.80282,0.70505 -2.14667,2.21858 -2.9863,3.36342 -2.92512,3.98842 -6.70381,8.62071 -7.55183,9.25778 -0.46966,0.35284 -1.68736,1.06386 -2.70601,1.58006 -1.19173,0.60391 -2.93944,1.91131 -4.90178,3.66688 -1.67733,1.50058 -4.68366,3.84207 -6.68073,5.2033 -3.29714,2.24738 -4.27748,3.21358 -3.2606,3.21358 0.64253,0 4.90176,-1.87175 9.11665,-4.00637 6.39612,-3.2393 9.19948,-5.2614 15.41296,-11.11752 12.94159,-12.19728 12.8928,-12.15563 13.44816,-11.48648 0.16706,0.2013 0.23091,0.65621 0.1419,1.01092 -0.26522,1.05665 -6.87848,9.08632 -10.3034,12.51012 -4.62315,4.62165 -12.34871,11.14328 -14.84857,12.53461 -1.15134,0.6408 -3.58162,2.02744 -5.40063,3.08143 -1.81901,1.054 -4.02167,2.21646 -4.89479,2.58324 -0.87313,0.36678 -4.11771,1.91275 -7.21019,3.43549 -5.71787,2.81548 -9.18736,4.11432 -12.87493,4.81987 -2.65966,0.50888 -4.72349,0.46123 -7.82842,-0.18072 z m 0.20774,-45.43506 c 3.15132,-1.59078 6.53874,-4.74395 11.56861,-10.768576 1.78443,-2.13734 4.12355,-5.97676 4.78715,-7.8576 0.44193,-1.25257 0.48428,-4.014 0.0794,-5.17553 -0.22762,-0.65297 -0.44228,-0.83286 -0.99219,-0.83149 -0.89962,0.002 -1.45331,0.38976 -4.8876,3.42085 -3.79695,3.35116 -5.45277,5.49572 -7.57168,9.80657 -0.96563,1.96453 -2.37519,4.710656 -3.13237,6.102506 -1.44124,2.6493 -2.53472,5.43687 -2.2888,5.83478 0.24578,0.39768 0.86371,0.26294 2.43752,-0.53151 z m -98.02439,45.21163 c -0.32025,-0.12895 -1.56935,-0.89531 -2.77577,-1.70302 -1.55905,-1.04379 -2.44669,-1.46856 -3.06889,-1.46856 -1.60265,0 -2.32515,-0.62054 -3.5126,-3.01691 l -1.10139,-2.22271 0.55246,-2.87029 c 1.26126,-6.5528 1.66786,-14.53474 1.56814,-30.78384 -0.0415,-6.76672 -0.0676,-13.910466 -0.058,-15.874996 0.0351,-7.16136 1.49546,-9.52928 6.62255,-10.73819 2.07073,-0.48825 5.83588,-0.39567 7.80178,0.19183 2.48548,0.74279 3.99893,3.13056 4.37116,6.89642 0.1673,1.69261 0.87035,3.38536 1.40603,3.38536 0.40643,0 1.87375,-1.95941 5.05247,-6.74687 3.15511,-4.75192 6.24872,-8.92479 8.72876,-11.77396 0.82334,-0.94589 2.06324,-2.43417 2.75532,-3.30729 1.89766,-2.39407 7.38907,-7.86928 10.07568,-10.045982 2.73893,-2.21909 7.64987,-5.61565 9.39271,-6.49629 1.94308,-0.98183 5.3353,-2.03189 8.16272,-2.52675 2.51167,-0.43961 2.86864,-0.44018 6.94009,-0.0112 10.81359,1.13934 13.56048,2.12826 16.14871,5.81377 2.09026,2.97643 2.59266,5.848132 1.41988,8.116042 -0.5076,0.9816 -2.48245,1.97353 -3.44709,1.73142 -0.82897,-0.20806 -2.00114,-1.4921 -3.15177,-3.45259 -2.28976,-3.901372 -4.40186,-5.732572 -7.02864,-6.093842 -1.86508,-0.25652 -2.63409,-0.007 -5.22402,1.69736 -5.68026,3.737262 -10.38989,8.064312 -17.53251,16.108302 -2.1054,2.37108 -4.64376,5.22858 -5.6408,6.35 -3.87989,4.36386 -10.05642,12.61208 -11.82952,15.79726 -0.97208,1.746246 -2.54703,4.454246 -3.49988,6.017786 -0.95285,1.56353 -3.88575,7.12188 -6.51757,12.35189 -5.49569,10.92118 -5.86136,11.95399 -7.68536,21.7066 -1.57153,8.40268 -2.9129,11.75284 -5.12627,12.80315 -0.9819,0.46594 -2.85078,0.54767 -3.79837,0.1661 z m 19.4699,-51.06116 c 0.85837,-1.236926 2.26571,-3.022856 3.12742,-3.968746 0.86171,-0.94589 2.25847,-2.67229 3.10391,-3.83646 0.84544,-1.16416 1.98021,-2.59291 2.52171,-3.175 0.5415,-0.58208 1.91313,-2.36802 3.04807,-3.96875 1.13494,-1.60073 3.21355,-4.27963 4.61912,-5.95312 5.15806,-6.14123 8.74527,-10.88022 8.74527,-11.55324 0,-0.20066 -0.287,-0.35301 -0.66501,-0.35301 -0.88538,0 -6.87796,5.5831 -9.49788,8.84888 -4.63913,5.78278 -8.85754,11.84992 -12.5196,18.00633 -2.50472,4.21077 -3.23973,5.159366 -3.99766,5.159366 -0.70812,0 -1.35608,-0.679576 -1.54404,-1.619386 -0.0838,-0.41902 -0.23416,-0.76186 -0.33413,-0.76186 -0.59516,0 -2.66252,3.867866 -2.66252,4.981366 0,0.72387 1.04217,2.59099 1.68722,3.02275 0.38347,0.25667 2.33935,-1.90562 4.36812,-4.82912 z m 28.70169,-34.679616 c 0.38343,-0.3016 0.69714,-0.78091 0.69714,-1.06513 0,-0.48785 -0.044,-0.49402 -0.78591,-0.11035 -0.68639,0.35495 -1.33076,1.11717 -1.33076,1.57417 0,0.33189 0.76329,0.11751 1.41953,-0.39869 z"
       style="fill:#50912f;stroke-width:0.26458332" />
  </g>
</svg>
