<?xml version="1.0" encoding="UTF-8" standalone="no"?>
<!-- Created with Inkscape (http://www.inkscape.org/) -->

<svg
   xmlns:dc="http://purl.org/dc/elements/1.1/"
   xmlns:cc="http://creativecommons.org/ns#"
   xmlns:rdf="http://www.w3.org/1999/02/22-rdf-syntax-ns#"
   xmlns:svg="http://www.w3.org/2000/svg"
   xmlns="http://www.w3.org/2000/svg"
   xmlns:sodipodi="http://sodipodi.sourceforge.net/DTD/sodipodi-0.dtd"
   xmlns:inkscape="http://www.inkscape.org/namespaces/inkscape"
   width="107.74981mm"
   height="69.770096mm"
   viewBox="0 0 107.74981 69.770096"
   version="1.1"
   id="svg8"
   inkscape:version="0.92.4 (5da689c313, 2019-01-14)"
   sodipodi:docname="White_leaf.svg">
  <defs
     id="defs2">
    <filter
       style="color-interpolation-filters:sRGB"
       inkscape:label="Lightness-Contrast"
       id="filter25">
      <feColorMatrix
         values="1 0 0 1 -0 0 1 0 1 -0 0 0 1 1 -0 0 0 0 1 0"
         id="feColorMatrix23"
         result="fbSourceGraphic" />
      <feColorMatrix
         result="fbSourceGraphicAlpha"
         in="fbSourceGraphic"
         values="0 0 0 -1 0 0 0 0 -1 0 0 0 0 -1 0 0 0 0 1 0"
         id="feColorMatrix27" />
      <feColorMatrix
         id="feColorMatrix29"
         values="1 0 0 1 -0 0 1 0 1 -0 0 0 1 1 -0 0 0 0 1 0"
         in="fbSourceGraphic" />
    </filter>
  </defs>
  <sodipodi:namedview
     id="base"
     pagecolor="#ffffff"
     bordercolor="#666666"
     borderopacity="1.0"
     inkscape:pageopacity="0.0"
     inkscape:pageshadow="2"
     inkscape:zoom="1.979899"
     inkscape:cx="222.58119"
     inkscape:cy="156.22942"
     inkscape:document-units="mm"
     inkscape:current-layer="layer1"
     showgrid="false"
     fit-margin-top="0"
     fit-margin-left="0"
     fit-margin-right="0"
     fit-margin-bottom="0"
     inkscape:window-width="2160"
     inkscape:window-height="1346"
     inkscape:window-x="-11"
     inkscape:window-y="-11"
     inkscape:window-maximized="1" />
  <metadata
     id="metadata5">
    <rdf:RDF>
      <cc:Work
         rdf:about="">
        <dc:format>image/svg+xml</dc:format>
        <dc:type
           rdf:resource="http://purl.org/dc/dcmitype/StillImage" />
        <dc:title></dc:title>
      </cc:Work>
    </rdf:RDF>
  </metadata>
  <g
     inkscape:label="Layer 1"
     inkscape:groupmode="layer"
     id="layer1"
     transform="translate(148.0528,-155.65275)">
    <path
       style="fill:#4f902f;stroke-width:0.26458335;filter:url(#filter25)"
       d="m -67.50386,219.52297 c -8.69316,-0.20756 -9.96433,-0.38418 -15.5398,-2.15913 -4.62305,-1.47175 -12.178719,-4.46756 -15.259305,-6.05028 -6.340345,-3.2575 -10.790345,-7.21649 -16.207565,-14.41921 -5.33659,-7.09552 -10.10274,-14.14288 -14.27034,-21.10052 -4.84488,-8.08831 -6.09573,-9.58962 -8.88376,-10.66257 -1.01293,-0.38981 -1.40902,-0.68259 -1.40902,-1.04151 0,-0.68866 0.44073,-0.7743 8.99583,-1.74799 6.44346,-0.73335 8.35598,-0.84696 14.68438,-0.87228 7.49505,-0.03 10.37119,0.19419 15.34583,1.19611 11.87306,2.39131 23.66247,9.17829 31.74586,18.27561 5.92207,6.6649 12.17849,16.29004 13.51575,20.79319 0.29082,0.97933 0.28044,1.19276 -0.0753,1.54855 -0.25635,0.25634 -0.61941,0.34705 -0.95843,0.23945 -0.7673,-0.24353 -3.75457,-2.22326 -8.70673,-5.77014 -9.723,-6.96388 -16.71684,-10.48687 -24.01173,-12.09535 -2.66496,-0.58762 -3.57187,-0.65838 -3.57187,-0.27872 0,0.37329 0.89335,0.79236 8.21936,3.85569 3.62586,1.51613 7.43385,3.18031 8.46221,3.69818 3.21777,1.62044 7.57152,4.30952 10.27708,6.34759 4.40272,3.31652 13.23606,12.54842 14.17314,14.81262 0.55833,1.34907 1.78806,5.19058 1.69066,5.28141 -0.24195,0.22562 -11.24322,0.31579 -18.2162,0.1493 z"
       id="path21"
       inkscape:connector-curvature="0" />
  </g>
</svg>
