<svg xmlns="http://www.w3.org/2000/svg" viewBox="0 0 431 430.79"><defs><style>.cls-1{fill:#93cff0;}.cls-2{fill:#fff;}.cls-3{fill:none;stroke:#fff;stroke-linecap:round;stroke-miterlimit:10;stroke-width:12.88px;}</style></defs><g id="Layer_2" data-name="Layer 2"><g id="Layer_1-2" data-name="Layer 1"><ellipse class="cls-1" cx="215.5" cy="215.4" rx="215.5" ry="215.4"/><path class="cls-2" d="M46.27,295.65c9.85-3.94,20-7.08,30.08-10.31,33.41-10.68,67.11-20.41,100.86-30q33.16-9.37,66.34-18.68a15.46,15.46,0,0,0,3-1.2,170.6,170.6,0,0,1,62-19c5.74-.64,11.53-1,17.15,1,3.82,1.36,4.67,4.29,2.07,7.45-2.74,3.32-6.44,5.4-10.19,7.33-10,5.14-20.56,8.56-31.4,11.29a167.35,167.35,0,0,1-36,5.2c-4.66.14-9,1.9-13.5,3-48.23,12.22-96.47,24.42-145,35.4-14.85,3.36-29.73,6.58-44.75,9.13C46.72,296.06,46,296.39,46.27,295.65Zm206.28-54.1.75.08a25.28,25.28,0,0,0,5.29,0c18-2,35.35-6.8,52.22-13.3a36.28,36.28,0,0,0,7.8-4c.57-.4,1.48-.79,1.27-1.66s-1.17-.78-1.89-.8a36.11,36.11,0,0,0-4.88,0,199.41,199.41,0,0,0-56.14,15,17.64,17.64,0,0,0-4.69,2.85C251.48,240.42,251.31,241.06,252.55,241.55Z"/><path class="cls-2" d="M231.16,82h.42q11.49,0,11.49,15.7,0,21-34.37,64.6-15.82,15.39-15.82,18.45,0-.21,23.83,2.84a78.29,78.29,0,0,0,8.54.42h2.11q13.29,0,31.52-7.58h1.38q8.12,0,8.11,6.42,0,8.87-36.58,14h-9.07q-3.79,0-30.79-3.79l-1.16.1q0-1,8.65,14.65a142.28,142.28,0,0,1,9.91,52.59q0,37.31-11.18,69.34-10.65,19.29-26,19.29-18.24,0-26.57-26.35-2.21-7.9-2.21-28.14a318.81,318.81,0,0,1,17.82-104.86q5.58-23.07,20-53.11A216.43,216.43,0,0,1,206,98.16Q219,82.05,231.16,82ZM157,295.44v8.86q0,18.65,10.44,30.35a10.27,10.27,0,0,0,4.22,1.58H173q7.81,0,14.77-19.18,7.49-30.15,7.48-53.64,0-26-5.38-46.69a162.91,162.91,0,0,0-14-22.76c.56,0,.11-.14-1.37-.42q-1.26,0-3.16,9.38Q157,250.13,157,295.44Zm24.47-125c.06.35-.39.53-1.38.53q3,0,27.52-29.83,11.28-13.8,16.87-26.45,4.86-9.9,4.85-14.86v-2c-.14-2.81-.1-4.22.11-4.22h-.63q-6,1.28-22.88,25a220.65,220.65,0,0,0-24.46,52.06Z"/><path class="cls-3" d="M257.26,184.1c20.46-7.73,28.52-19.26,47.19-4.06,18.13,16.79-6.88,36.6-3.09,54.37,4.15,19.43,40.1,22.72,40.1,22.72"/></g></g></svg>