<svg xmlns="http://www.w3.org/2000/svg" viewBox="0 0 988.87 449.42"><defs><style>.cls-1{fill:#fff;}</style></defs><g id="Layer_2" data-name="Layer 2"><g id="Layer_1-2" data-name="Layer 1"><g id="Layer_2-2" data-name="Layer 2"><g id="Layer_1-2-2" data-name="Layer 1-2"><path class="cls-1" d="M558.41,144.93c-4.67-1-9.94-2.26-10-9.6,0-7.11,9.34-13.69,19.66-13.49,5.83.11,7.82,4,7.81,9.12C575.91,137.94,567.62,144.82,558.41,144.93Z"/><path class="cls-1" d="M849.89,178.74c-3.16-4.28-8.06-3.65-12.24-.71a110.24,110.24,0,0,0-10,7.91c-13.94,12.39-26.3,26.27-38.25,40.54-3.35,4-7,7.72-11.37,12.47-1.45-12.77.57-23.49,2.38-34.24.84-5,2.92-10.77-3.83-13.31-6.24-2.35-9.58,2.19-12.48,6.64-5.5,8.41-10.61,17.11-17.52,24.48-2.39,2.54-4.83,6.37-9.13,4.2-3.72-1.87-4-5.84-3.8-9.6a39.08,39.08,0,0,1,1-7.23c2.61-10.45,5.56-20.82,8-31.31.78-3.4,1.31-7.64-3.44-9.19-3.82-1.24-6.71.88-8.43,3.89-7.74,13.58-19.55,23.48-31.58,32.58-11.66,8.82-25.25,14.95-40.68,14-11.23-.68-18.28-7.17-22.86-17-3.07-6.63-5.15-13.07-.25-19.74,27.31-37.36,47.83-78.27,62.59-122.07,5.14-15.26,10.58-30.49,11.67-46.76.34-5-.1-10.25-5-12.85-5.51-2.9-10.67-.56-15.33,2.84a22.76,22.76,0,0,0-5.89,6.84c-6.13,10.06-13,19.67-18.73,30-22.13,40.11-39.53,82.27-49.15,127-2.44,11.35-7.93,18.38-15.38,25.43-2.63,2.5-5.51,4.73-8.24,7.13-13.3,11.7-26.77,23.23-43.85,29.18-5.33,1.86-11.92,4.78-16.35-.12-3.76-4.15-.2-9.91,1.46-14.66a44.5,44.5,0,0,1,5.41-10.48,66.51,66.51,0,0,0,8.82-18.94c2.29-7.67-1-11.88-8.86-11.7a54.44,54.44,0,0,0-9,1.14c-17.68,3.31-34.39,9.5-50.43,17.46-5.44,2.7-9,.37-12.65-3.13-4-3.83-.67-6.55,1.26-9.38a60.35,60.35,0,0,0,8.45-17.12c3.49-12.12-1-22.85-11.4-27.35-12.49-5.44-23.47-1.84-30.15,10.06-4.89,8.69-6.65,17.67-1.32,26.86,1.75,3,2.82,5.35-1.92,6.45-12.74,3-24.22,9.24-36.22,14.15-4.83,2-7.78-.92-11-3.68-3.73-3.23-1.26-5.88.66-8.57a59,59,0,0,0,9-17.83c3.76-13.12-.81-23.25-12.26-27.79-12.53-5-23.27-.86-29.79,11.2-5.61,10.37-5.1,20.32,1.33,30.16,1.6,2.45,5.19,4.87.3,8.12-19.56,13-40.19,22.82-64.23,24.06-7,.37-9.06-1.37-7.52-8.57,2.17-10.22-.72-19.47-9.65-25.53-10.36-7-34.27-3.81-42.56,5.72a171.12,171.12,0,0,1-25.87,24.46c-12.25,9.25-26.08,15.88-42.14,15-11.29-.6-18.22-7.41-22.81-17.15-3.11-6.6-5-13-.08-19.75C168.53,142.38,189.81,97.5,205,49.62c3.73-11.57,7-23.33,8-35.57.44-5.14-.57-10.08-5.26-12.77-4.33-2.48-9-1-13,1.51A21.87,21.87,0,0,0,187,10.34c-4.46,7.56-9.47,14.79-13.94,22.34A475,475,0,0,0,118.29,170c-1.07,4.68-3.75,5.57-7.16,6.88-18.87,7.24-37.82,4-57.66.72,1.75-5.24,5.32-7.78,8.23-10.71,14.52-14.64,25.71-31.63,35.44-49.64,3.63-6.73,6.43-13.88,7.28-21.5.76-6.74.79-13.91-5.59-18.21s-12.93-1.91-19,1.52c-6.5,3.66-11.37,9.11-16,14.86-23.66,29.57-36.86,64-47.69,99.76C4,234-2.33,274.84.79,317a47.81,47.81,0,0,0,11,27.51c8.81,10.64,22.32,12.07,33.54,4A35.18,35.18,0,0,0,58.5,331.24a206.13,206.13,0,0,0,9.11-94.32A109,109,0,0,0,51,191.71c23.49,2.77,44.93,7.44,65.84-1.3,13.83,46.91,36.76,53.68,94.66,28,0,2.36-.05,4.37,0,6.38.38,14,8.88,22.25,22.81,22.93,15.32.74,26.09-6.75,35-18.09,2.2-2.8,3.6-6.39,8.19-6.29,31.6.72,60-9,85.78-26.79,3-2.09,5-2.22,7.74.53,4.36,4.31,5.81,7.32.15,12.28-14.26,12.53-27.72,25.95-32.3,45.39-3.31,14.08,6.48,27.71,20.8,26.7,17.45-1.23,33.15-7.29,42.26-24.27,7.39-13.78,8.43-27.62,1.77-41.74-2.73-5.79-1-8.63,4.47-11.26,9.92-4.8,20.4-7.9,30.71-11.61,9.55-3.44,13.32,2.54,17.24,8.56,4.4,6.74-3.31,8-6.08,10.8-12.26,12.46-24.62,24.73-28.86,42.49-3.46,14.49,6.72,28.47,21.26,27.1,18.48-1.73,34.6-8.52,43.21-27.25,6-13,6-25.49.53-38.45-1.27-3-4-6.77.82-9.53a115,115,0,0,1,37.86-13.9c-2.41,6.21-4.84,11.41-6.43,16.87A79.74,79.74,0,0,0,515,226.15c-.92,13.86,6.13,20.91,20,21.38,13.07.44,24.36-4.54,35.37-10.7,14.76-8.27,27.11-19.69,39.89-30.49,4.73-4,6.64-5,9.76,1.75,9.25,20,26.06,28.31,47.71,25.47,19.36-2.54,35.43-11.69,51-24.94-.24,12.84-2,25.57,11,31.4,13.33,6,21.72-4.27,31.63-13.48,0,6.48-.52,11,.1,15.45,1.79,12.67-1.6,23.36-8.63,34.22-18,27.89-33.43,57.27-44,88.92-5.24,15.68-9,31.58-6.77,48.3,1.16,8.65,4.37,16.07,13.79,18.41,12.87,3.2,25.36-1.83,33.42-9.54,7.18-6.86,12.48-17.35,16.34-27.75a239.44,239.44,0,0,0,14.31-105.81c-1.58-17.52,1.34-31.88,13.53-45.11,17.11-18.59,32.18-39.08,53-54.08C850,186.92,853,183,849.89,178.74ZM689.26,30.6c-10.58,45.71-29.43,87.84-55,127.06C646.66,112.76,663.89,69.92,689.26,30.6Zm-495.41-2c-11,46.23-30.62,88.77-55.51,130.43-1.46-17.58,37.31-109,55.51-130.4ZM51.13,229.14a204.32,204.32,0,0,1-6,91.81c-2.25,7.5-4.31,17.76-14.49,17.37-9.82-.39-12-10.3-13.48-18.08-3.54-18.65-1.8-37.46,0-56.21,2.32-24.24,8.46-47.64,15.52-72.58C42,203.83,48.89,215.05,51.13,229.14Zm-9-65.58C52.49,135.14,65.38,110,87.29,89.05c2.7,4.22,1.84,7.74,1,11-4.36,16-30.29,52-46.19,63.51Zm213,58.76c-.62.67-1.18,1.4-1.78,2.09-7.49,8.67-16,11.9-22.1,8.41s-7.28-12.68-2.89-23.3c1.62-3.9,3.69-7.61,6.37-13.08,4.61,10.13,10.41,16.45,19.12,19.75,3.56,1.34,3.8,3.47,1.29,6.13ZM264,205.63c-6.32-3.73-14.37-5.44-12.08-14.81,1.21-5,6.38-6.45,10.22-4.15C270.37,191.58,265.44,198.58,264,205.63Zm106.15-32.4c-5.18-6.29-8.3-12.42-4-20.09,2-3.65,4.62-5.49,8.93-3.73,3.79,1.55,4.85,4.15,3.78,8-1.6,5.83-3.66,11.38-8.64,15.82Zm-7,94.09c-6,.93-8.66-1.65-8.51-7.39.2-7.27,3.18-13.42,7.67-19.08,5.3-6.69,10.66-13.31,17.26-18.78,6.91-5.72,7.83-5.37,10.12,3.73.73,2.92,1.08,5.93,1.24,6.78.07,17.81-12.52,32.4-27.73,34.74Zm89.7-93.46c-5.9-7.26-9-13.75-4-21.62,2.14-3.34,4.81-4.34,8.54-2.75,3.33,1.43,4.42,3.72,3.76,7.26-1.08,6.13-4.15,11.2-8.25,17.11Zm-7.43,93.44c-5.87.89-8.73-1.3-8.55-7.31.23-7.3,3.2-13.44,7.68-19.09,5.51-6.93,11.18-13.62,17.92-19.45,5.67-4.91,8.2-3.33,9.3,3.41.54,3.28,1.32,6.51,1.58,7.81,0,17.64-12.63,32.32-27.88,34.63ZM764.5,320.13c-2,23-4.39,45.9-12.71,67.7-2.71,7.11-5.72,14.05-10.21,20.27-2.9,4-6.32,7.46-11,9.25-6.43,2.44-11.05,2-12.3-6.46-2.11-14.29.94-27.81,5.25-41.13,9.65-29.82,24.82-57,41.74-85.91,2.87,13.71.26,25-.72,36.28Z"/><g id="_0kO62J.tif" data-name=" 0kO62J.tif"><path class="cls-1" d="M575.92,448.68c13.65-11.57,28.15-22,42.56-32.57,47.7-34.94,96.35-68.51,145.19-101.82q48-32.73,96-65.35a25.22,25.22,0,0,0,4.19-3.52A287,287,0,0,1,952.8,181.9c8.83-4.08,17.86-7.83,27.92-7.65,6.82.13,9.76,4.37,7.29,10.81-2.61,6.78-7.41,12.08-12.36,17.17-13.17,13.55-28.28,24.68-44.15,34.84a283.3,283.3,0,0,1-54.83,27.58c-7.37,2.71-13.41,7.87-19.94,12.07-70.52,45.33-141.09,90.62-212.79,134.12-21.94,13.31-44,26.42-66.64,38.52C576.87,449.05,575.82,450.05,575.92,448.68Zm300.77-196.8,1.25-.26a43.35,43.35,0,0,0,8.45-2.86c27.74-12.84,52.84-29.78,76.34-49.18a61.69,61.69,0,0,0,10.34-10.53c.7-.94,1.95-2.06,1.15-3.34s-2.29-.62-3.45-.26A59.55,59.55,0,0,0,963,188.1a335.73,335.73,0,0,0-81.72,54,30.45,30.45,0,0,0-6,7.05c-.88,1.51-.81,2.62,1.43,2.73Z"/></g></g></g></g></g></svg>