<svg xmlns="http://www.w3.org/2000/svg" viewBox="0 0 632.39 559.73"><defs><style>.cls-1{fill:#fff;}.cls-2{fill:none;stroke:#fff;stroke-linecap:round;stroke-miterlimit:10;stroke-width:27px;}</style></defs><g id="Layer_2" data-name="Layer 2"><g id="Layer_1-2" data-name="Layer 1"><path class="cls-1" d="M.16,447.73c20.65-8.25,41.88-14.85,63.05-21.61,70-22.38,140.66-42.78,211.4-62.79q69.51-19.66,139.06-39.17a32.57,32.57,0,0,0,6.33-2.5,357.17,357.17,0,0,1,130-39.82c12-1.33,24.15-2.19,35.94,2,8,2.84,9.79,9,4.33,15.61-5.75,7-13.5,11.33-21.35,15.38-20.88,10.77-43.09,17.94-65.81,23.65a351.57,351.57,0,0,1-75.55,10.91c-9.77.28-18.92,4-28.29,6.36C298.14,381.36,197,406.93,95.3,429.94,64.18,437,33,443.74,1.51,449.08,1.11,448.58-.5,449.28.16,447.73ZM432.53,334.32l1.58.19a54.08,54.08,0,0,0,11.09-.05c37.78-4.19,74.07-14.26,109.44-27.87A76.56,76.56,0,0,0,571,298.26c1.2-.83,3.11-1.65,2.67-3.48s-2.46-1.64-4-1.67a77.57,77.57,0,0,0-10.23.05,418.2,418.2,0,0,0-117.67,31.41,37.67,37.67,0,0,0-9.83,6C430.29,332,429.93,333.3,432.53,334.32Z"/><path class="cls-1" d="M387.69,0h.88q24.09,0,24.09,32.91,0,44-72.05,135.41Q307.47,200.57,307.47,207q0-.43,49.94,6a163.19,163.19,0,0,0,17.9.88h4.42q27.84,0,66.08-15.91h2.87q17,0,17,13.48,0,18.56-76.69,29.38H370q-8,0-64.53-8l-2.43.23q0-2.21,18.12,30.7A298.56,298.56,0,0,1,341.94,374q0,78.19-23.42,145.35-22.33,40.41-54.59,40.42-38.24,0-55.69-55.22-4.63-16.58-4.64-59,0-111.76,37.35-219.78,11.72-48.37,42-111.33A453.39,453.39,0,0,1,334.87,33.8Q362.28,0,387.69,0ZM232.33,447.3v18.55q0,39.11,21.88,63.62,6,3.31,8.84,3.31h2.65q16.35,0,30.94-40.2,15.69-63.18,15.69-112.43,0-54.56-11.27-97.86-10.4-21.19-29.4-47.71c1.18,0,.23-.29-2.87-.88q-2.66,0-6.63,19.66Q232.33,352.31,232.33,447.3Zm51.27-262c.14.74-.81,1.11-2.87,1.11q6.18,0,57.67-62.51Q362.06,95,373.76,68.47q10.17-20.76,10.17-31.14v-4.2c-.3-5.89-.22-8.83.22-8.83h-1.33q-12.58,2.64-47.95,52.35-33.81,53.46-51.27,109.12Z"/><path class="cls-2" d="M442.39,213.91c42.9-16.2,59.79-40.37,98.92-8.49,38,35.18-14.43,76.7-6.47,113.94,8.71,40.74,84,47.62,84,47.62"/></g></g></svg>